<?xml version="1.0" encoding="UTF-8"?>
<svg width="200px" height="202px" viewBox="0 0 200 202" version="1.1" xmlns="http://www.w3.org/2000/svg" xmlns:xlink="http://www.w3.org/1999/xlink">
    <!-- Generator: Sketch 58 (84663) - https://sketch.com -->
    <title>编组</title>
    <desc>Created with Sketch.</desc>
    <defs>
        <circle id="path-1" cx="98.8826816" cy="98.8826816" r="98.8826816"></circle>
    </defs>
    <g id="Welcome" stroke="none" stroke-width="1" fill="none" fill-rule="evenodd">
        <g id="画板" transform="translate(-166.000000, -121.000000)">
            <g id="编组" transform="translate(166.000000, 121.000000)">
                <g id="Path" transform="translate(1.872516, 4.108127)">
                    <mask id="mask-2" fill="white">
                        <use xlink:href="#path-1"></use>
                    </mask>
                    <use id="蒙版" fill-opacity="0" fill="#FFFFFF" xlink:href="#path-1"></use>
                    <path d="M-0.721947925,154.970258 C13.625669,129.349181 32.9239274,118.175814 57.1728273,121.450155 C93.5461771,126.361668 96.2114146,140.182446 122.523777,134.971138 C136.595985,132.18406 148.891303,123.60687 148.094502,122.787371 C146.381639,121.025713 147.294048,123.310776 137.337958,124.628563 C131.809488,125.360311 121.221398,124.987845 113.622782,121.450155 C107.537228,118.616904 105.008328,117.522718 101.459359,113.92602 C93.4790327,105.838371 100.219207,97.7289287 101.459359,95.3557853 C102.699511,92.9826419 93.3737336,73.7296745 101.459359,59.5377232 C109.544984,45.3457719 123.544418,43.1322161 132.319634,37.3602241 C141.094849,31.5882321 137.106717,25.7764327 140.192333,23.2376936 C141.102972,22.4884511 142.875711,22.9922086 145.251571,24.8770326 C146.866405,26.1581175 148.759864,28.0772143 150.850628,30.6745351 C152.038518,32.1502296 153.83209,34.9214364 156.231344,38.9881554 C157.702053,38.2776919 158.958517,36.6503645 160.000738,34.1061732 C161.564069,30.2898862 159.629838,24.847844 162.339585,24.5251902 C163.851431,24.3451724 169.36978,29.3445356 178.894633,39.5232801 C180.132198,40.8458049 182.140728,43.0263263 184.920224,46.0648442 C195.871542,55.4121907 204.055091,68.5611822 209.47087,85.5118188 C217.594538,110.937774 217.277351,151.269685 198.423709,175.432444 C179.570068,199.595203 166.323233,205.197357 138.13107,214.22418 C109.938907,223.251002 84.0676136,222.37613 53.053181,214.22418 C22.0387485,206.072229 -0.606217504,181.376019 -6.70391061,175.370976 C-5.32351523,169.326448 -3.32952767,162.526208 -0.721947925,154.970258 Z" fill="#000000" mask="url(#mask-2)"></path>
                </g>
                <path d="M104.737698,0.0856432817 L105.147604,0.0662312107 L106.339295,0.0213612129 C107.286438,-0.00871960302 108.198329,0.137175844 109.043543,0.429556196 C112.493487,1.20623761 114.948175,4.41000107 114.682605,8.04293461 C114.463613,11.0386976 112.456986,13.4767367 109.782901,14.3894909 C108.880127,14.8130452 107.878145,15.0638923 106.818109,15.0975586 C101.744985,15.2586787 96.6930156,15.8675691 91.7264009,16.9167272 C91.2465084,17.0181007 90.7678243,17.1234745 90.2903916,17.2328292 C89.9072448,17.420268 89.5021128,17.5766904 89.0779486,17.6991246 C71.3743108,22.8092459 55.754371,33.4449766 44.4187914,48.4877989 C15.9154964,86.3129488 23.4448035,140.058644 61.2313133,168.532822 C76.7968396,180.262287 95.4786694,186.17075 114.560177,185.755924 C118.724469,185.665394 122.173684,188.96783 122.264214,193.132122 C122.354745,197.296414 119.052308,200.745629 114.888016,200.83616 C113.685387,200.862305 112.484018,200.867061 111.284411,200.850524 C110.27457,201.331433 109.141058,201.594383 107.946315,201.578647 C102.451974,201.50628 96.9994765,200.988813 91.6364027,200.036965 C90.6717341,200.348613 89.6252714,200.462482 88.5518098,200.335342 C66.3254357,197.702866 45.5659428,187.778631 29.4118513,171.62454 C-9.82765506,132.385033 -9.79960033,68.7408407 29.4699858,29.4712545 C49.6382969,9.30294341 76.8908537,-1.06040174 104.737698,0.0856432817 Z" id="形状结合" fill="#000000" fill-rule="nonzero"></path>
            </g>
        </g>
    </g>
</svg>